:SAMPLES-PER-SECOND 30
:FULLY-SPECIFIED
:DEGREES
381
root  38.9118 34.6225 42.1763 3.05103 52.3797 -5.14062
LeftUpLeg  -3.82047 3.284 8.90241
LeftLeg  11.7841 3.61324 0.512672
LeftFoot  -3.06101 -0.00944059 -0.207769
LeftToes  -19.109 1.61378e-006 8.80029e-008
Spine  2.14721 -0.413384 -0.556323
Spine1  4.19175 -0.884621 -1.0545
RightShoulder  0.0106476 3.05463 6.80351
RightArm  -36.738 -24.4447 50.9417
RightForeArm  25.4789 68.8978 27.3636
RightHand  1.26449 -5.30033 -26.4174
LeftShoulder1  0.0267215 -0.800452 -7.01555
LeftArm  -23.5993 11.9983 -66.3942
LeftForeArm  29.7003 -22.2033 -4.11835
LeftHand  0.0818328 1.64206 5.31318
HEad  -4.39168 -16.2534 -7.06993
RightUpLeg  -12.8704 -15.7879 1.89568
RightLeg  7.81515 1.26988 0.0931338
RightFoot  6.17003 0.013652 0.124232
RightToes  -27.9878 -0.130313 -0.23774
382
root  38.8485 34.6165 42.695 2.63303 52.9422 -5.60323
LeftUpLeg  -3.73108 3.08963 9.74891
LeftLeg  12.2656 4.75113 0.714889
LeftFoot  -2.7372 -0.00752725 -0.247776
LeftToes  -20.1282 1.61378e-006 8.80029e-008
Spine  2.22565 -0.392142 -0.3536
Spine1  4.34006 -0.832126 -0.696356
RightShoulder  0.0152358 3.39501 6.79923
RightArm  -36.4564 -24.8057 53.5868
RightForeArm  19.8072 63.1602 20.4909
RightHand  1.25285 -5.2118 -26.6142
LeftShoulder1  0.0262146 -0.883505 -7.1418
LeftArm  -22.7882 12.499 -66.5488
LeftForeArm  29.8482 -21.6957 -4.01404
LeftHand  0.0819351 1.73253 5.02476
HEad  -4.85418 -15.9791 -6.83186
RightUpLeg  -12.2983 -15.3502 2.71858
RightLeg  7.88069 0.311676 0.0242817
RightFoot  5.17652 0.0163875 0.015027
RightToes  -26.9125 -0.123248 -0.229945
383
root  38.8025 34.6121 43.19 2.52058 53.5497 -5.81715
LeftUpLeg  -3.88722 3.0016 10.3056
LeftLeg  12.9539 6.26585 1.0193
LeftFoot  -2.24497 -0.00531772 -0.271409
LeftToes  -21.2611 1.61378e-006 8.80029e-008
Spine  2.31278 -0.407898 -0.175032
Spine1  4.50631 -0.87362 -0.351888
RightShoulder  0.0172878 3.50186 6.97116
RightArm  -36.0214 -24.9962 55.5568
RightForeArm  16.0475 58.1293 16.5331
RightHand  1.21183 -5.08979 -26.3657
LeftShoulder1  0.0267361 -0.99921 -7.50382
LeftArm  -22.0584 12.7614 -66.5907
LeftForeArm  30.2539 -20.3189 -3.73492
LeftHand  0.07853 1.79948 4.6095
HEad  -5.33609 -15.835 -6.67295
RightUpLeg  -11.8919 -15.1596 3.41513
RightLeg  8.00383 -0.460899 -0.0333828
RightFoot  4.16575 0.0154031 -0.045964
RightToes  -25.5231 -0.114339 -0.219678
384
root  38.7596 34.6136 43.6578 2.74304 53.999 -5.71915
LeftUpLeg  -4.12359 3.38734 10.6007
LeftLeg  13.6281 7.90743 1.38042
LeftFoot  -1.58179 -0.00341434 -0.247341
LeftToes  -22.2926 1.61378e-006 8.80029e-008
Spine  2.30567 -0.397793 -0.0982828
Spine1  4.48703 -0.868103 -0.184788
RightShoulder  0.0185541 3.44129 6.88293
RightArm  -36.3279 -25.0317 57.792
RightForeArm  15.4266 52.9874 13.5606
RightHand  1.12703 -4.89632 -25.5075
LeftShoulder1  0.0279028 -1.07922 -7.72719
LeftArm  -21.7905 13.3885 -66.7693
LeftForeArm  30.9022 -19.2561 -3.52275
LeftHand  0.0796797 1.93557 4.32868
HEad  -5.29327 -15.6908 -6.62765
RightUpLeg  -11.6556 -15.0174 3.93121
RightLeg  8.21098 -0.959756 -0.0745258
RightFoot  3.1998 0.0123247 -0.0636944
RightToes  -23.9869 -0.104781 -0.20808
385
root  38.7155 34.6232 44.0938 3.04762 54.2764 -5.5049
LeftUpLeg  -4.4008 4.24441 10.8071
LeftLeg  14.3885 9.2636 1.74168
LeftFoot  -0.926486 -0.00144651 -0.178915
LeftToes  -22.89 1.61378e-006 8.80029e-008
Spine  2.25283 -0.389985 -0.0551508
Spine1  4.38533 -0.859187 -0.084141
RightShoulder  0.0190986 3.36857 6.5217
RightArm  -36.0951 -24.9151 59.8918
RightForeArm  15.1353 47.496 11.1109
RightHand  1.11915 -4.93693 -25.1281
LeftShoulder1  0.0293315 -1.0539 -7.88573
LeftArm  -22.1554 14.2303 -67.0876
LeftForeArm  31.4457 -18.2939 -3.33316
LeftHand  0.084024 2.15069 4.09093
HEad  -4.95679 -15.3432 -6.7229
RightUpLeg  -11.4835 -15.1614 4.37726
RightLeg  8.47784 -0.980496 -0.0807623
RightFoot  2.33341 0.00863149 -0.0469712
RightToes  -22.6963 -0.0969939 -0.19814
386
root  38.6706 34.6361 44.4978 3.42619 54.4634 -5.15208
LeftUpLeg  -4.74715 5.23021 10.8862
LeftLeg  15.317 10.6273 2.17295
LeftFoot  -0.294989 -0.000209462 -0.0813755
LeftToes  -23.1805 1.61378e-006 8.80029e-008
Spine  2.23204 -0.358223 -0.0258389
Spine1  4.35367 -0.795979 -0.0159303
RightShoulder  0.0191589 3.36906 6.22861
RightArm  -35.8216 -24.8086 61.5668
RightForeArm  14.7242 42.1381 9.18709
RightHand  1.03679 -4.83574 -23.7876
LeftShoulder1  0.0306392 -0.977895 -8.06495
LeftArm  -22.6382 15.0911 -67.4354
LeftForeArm  31.5979 -17.5041 -3.17935
LeftHand  0.0940003 2.40836 4.08794
HEad  -4.75421 -15.0854 -6.76117
RightUpLeg  -11.302 -15.4341 4.73265
RightLeg  8.69571 -0.831174 -0.0714345
RightFoot  1.49287 0.00525414 -0.0257191
RightToes  -20.9888 -0.087039 -0.184724
387
root  38.6321 34.6437 44.8741 3.90219 54.625 -4.63206
LeftUpLeg  -5.21874 6.32058 10.7958
LeftLeg  16.5459 12.034 2.72411
LeftFoot  0.133144 -5.63139e-006 0.00483773
LeftToes  -22.3431 1.61378e-006 8.80029e-008
Spine  2.25506 -0.29872 -0.0225261
Spine1  4.40977 -0.675368 -0.000195234
RightShoulder  0.0188234 3.45142 5.98853
RightArm  -36.609 -24.7 63.1586
RightForeArm  15.6115 37.0206 7.64225
RightHand  0.90732 -4.72547 -21.3272
LeftShoulder1  0.0314428 -0.975488 -8.24125
LeftArm  -22.9555 15.958 -67.7331
LeftForeArm  31.5328 -16.9676 -3.07577
LeftHand  0.0990061 2.57123 4.02866
HEad  -4.7644 -15.005 -6.78419
RightUpLeg  -11.1558 -15.8849 4.94959
RightLeg  9.02081 -0.477276 -0.0431539
RightFoot  0.669049 0.00224395 -0.00677141
RightToes  -19.7281 -0.0799483 -0.174633
388
root  38.6048 34.6489 45.2296 4.42101 54.6821 -4.02432
LeftUpLeg  -5.86871 7.30277 10.5758
LeftLeg  18.2112 13.6025 3.48587
LeftFoot  0.324656 -0.000667267 0.0576153
LeftToes  -20.6403 1.61378e-006 8.80029e-008
Spine  2.29174 -0.208709 -0.0435333
Spine1  4.49297 -0.4908 -0.0361161
RightShoulder  0.0182043 3.6301 5.85138
RightArm  -38.1357 -24.4465 64.603
RightForeArm  16.9103 31.8971 6.29775
RightHand  0.865623 -5.25989 -18.2859
LeftShoulder1  0.0313591 -0.953638 -8.47532
LeftArm  -22.9202 16.8293 -67.8791
LeftForeArm  31.2762 -16.7058 -3.02561
LeftHand  0.100953 2.67928 3.93473
HEad  -4.91095 -14.9465 -6.83842
RightUpLeg  -10.9514 -16.3685 5.05742
RightLeg  9.28444 0.0414361 0.00547079
RightFoot  -0.0824468 -0.000235918 0.00113777
RightToes  -18.8106 -0.0749282 -0.167191
389
root  38.5902 34.6513 45.5601 4.95186 54.6575 -3.35902
LeftUpLeg  -6.77796 8.18937 10.2544
LeftLeg  20.5118 15.2403 4.54394
LeftFoot  0.228683 -8.55958e-005 0.042883
LeftToes  -18.1671 1.61378e-006 8.80029e-008
Spine  2.32502 -0.105989 -0.0671842
Spine1  4.57064 -0.277793 -0.0821206
RightShoulder  0.0174014 3.91615 5.83915
RightArm  -39.6186 -24.2079 65.7279
RightForeArm  17.861 27.0194 5.15453
RightHand  0.867607 -6.44634 -14.9299
LeftShoulder1  0.0300049 -0.85527 -8.72769
LeftArm  -22.8426 17.6766 -67.9963
LeftForeArm  31.0348 -16.6386 -3.01287
LeftHand  0.100444 2.75355 3.78821
HEad  -4.99551 -14.7527 -6.99489
RightUpLeg  -10.5871 -16.3958 5.06214
RightLeg  9.26533 0.153454 0.0164022
RightFoot  -0.688577 -0.00223579 0.000993208
RightToes  -17.8477 -0.0697881 -0.159295
390
root  38.5813 34.6495 45.8514 5.29919 54.4126 -2.83527
LeftUpLeg  -7.94495 9.05804 9.92853
LeftLeg  23.5448 16.8358 5.9706
LeftFoot  -0.125596 -6.66129e-005 -0.0607835
LeftToes  -15.2862 1.61378e-006 8.80029e-008
Spine  2.36369 0.066785 -0.0603516
Spine1  4.66156 0.0771026 -0.0710806
RightShoulder  0.0164837 4.20676 5.81395
RightArm  -41.1927 -24.0804 66.7154
RightForeArm  19.4392 22.8589 4.25848
RightHand  0.789506 -8.03735 -10.8234
LeftShoulder1  0.0256192 -0.615635 -8.88329
LeftArm  -22.8932 18.3587 -68.2929
LeftForeArm  30.892 -16.641 -3.01342
LeftHand  0.100626 2.77668 3.68985
HEad  -5.07624 -14.598 -7.20032
RightUpLeg  -10.1591 -16.1993 5.07439
RightLeg  9.18169 0.220196 0.0226016
RightFoot  -1.20342 -0.00438538 -0.00133464
RightToes  -16.9595 -0.0673834 -0.151937
391
root  38.5941 34.644 46.1111 5.46985 54.0354 -2.48921
LeftUpLeg  -9.57268 10.0857 9.55162
LeftLeg  27.5454 18.0349 7.79549
LeftFoot  -1.40205 -0.00633448 -0.517705
LeftToes  -8.76225 1.61378e-006 8.80029e-008
Spine  2.42347 0.272375 -0.0162974
Spine1  4.79369 0.49553 0.013888
RightShoulder  0.0156046 4.40564 5.84061
RightArm  -42.4128 -23.9453 67.4866
RightForeArm  21.7193 19.3654 3.54923
RightHand  0.603259 -9.14125 -7.1603
LeftShoulder1  0.0210745 -0.383736 -8.97845
LeftArm  -23.1487 18.9338 -68.7192
LeftForeArm  30.7262 -16.7385 -3.03223
LeftHand  0.100483 2.83908 3.60434
HEad  -5.25989 -14.4296 -7.38109
RightUpLeg  -9.735 -16.5052 5.12787
RightLeg  9.14876 0.892535 0.0867943
RightFoot  -1.66578 -0.00582451 -0.0231089
RightToes  -16.351 -0.0653254 -0.146855
392
root  38.6147 34.6353 46.3385 5.58655 53.7353 -2.22363
LeftUpLeg  -11.5945 10.765 9.07178
LeftLeg  31.7097 17.9184 9.29754
LeftFoot  -2.22383 -0.0161609 -0.832643
LeftToes  -5.24207 1.61378e-006 8.80029e-008
Spine  2.50114 0.436848 0.056825
Spine1  4.95809 0.825421 0.159823
RightShoulder  0.0148806 4.53335 5.96621
RightArm  -42.6658 -23.9382 68.0662
RightForeArm  24.0982 17.0078 3.08821
RightHand  0.44293 -9.55598 -4.92202
LeftShoulder1  0.0175911 -0.157493 -9.15911
LeftArm  -23.3615 19.3291 -69.1001
LeftForeArm  30.4811 -16.8986 -3.06315
LeftHand  0.100905 2.84036 3.55139
HEad  -5.47143 -14.3093 -7.56465
RightUpLeg  -9.3702 -16.8271 5.17189
RightLeg  9.19811 1.51266 0.147437
RightFoot  -2.11244 -0.00795414 -0.0538986
RightToes  -15.9529 -0.0636195 -0.144692
